PathFileType	4	(X/Y/Z)	60_1_44_p0_0-352_filt_butterworth.trc
DataRate	CameraRate	NumFrames	NumMarkers	Units	OrigDataRate	OrigDataStartFrame	OrigNumFrames
45.0	45.0	6	27	m	45.0	88	352
Frame#	Time	RHip			RKnee			RAnkle			RBigToe			RSmallToe			RHeel			LHip			LKnee			LAnkle			LBigToe			LSmallToe			LHeel			Neck			Head			Nose			RShoulder			RElbow			RWrist			RThumb			RIndex			RPinky			LShoulder			LElbow			LWrist			LThumb			LIndex			LPinky			
		X1	Y1	Z1	X2	Y2	Z2	X3	Y3	Z3	X4	Y4	Z4	X5	Y5	Z5	X6	Y6	Z6	X7	Y7	Z7	X8	Y8	Z8	X9	Y9	Z9	X10	Y10	Z10	X11	Y11	Z11	X12	Y12	Z12	X13	Y13	Z13	X14	Y14	Z14	X15	Y15	Z15	X16	Y16	Z16	X17	Y17	Z17	X18	Y18	Z18	X19	Y19	Z19	X20	Y20	Z20	X21	Y21	Z21	X22	Y22	Z22	X23	Y23	Z23	X24	Y24	Z24	X25	Y25	Z25	X26	Y26	Z26	X27	Y27	Z27	
88	1.9555555555555555	0.3556687997139131	0.7615810810128731	0.5977618379104219	0.35506083211288914	0.26965994669556237	0.7162374303869956	0.3543481692060099	-0.14092115207738104	0.7653491725898182	0.32083192280404993	-0.1354477555790059	0.5428584805647138	0.37935239582724556	-0.1472103972318548	0.5903343143487585	0.3396155676835737	-0.19256635771047725	0.8072032210798177	0.14092590319180395	0.7529501483268903	0.6220113845687283	0.11546261519286893	0.26878551605070333	0.7383673562940245	0.11322936119487677	-0.12426760631513951	0.774280982472418	0.11286044681742777	-0.13613263099263126	0.5748163223317276	0.06205137361569012	-0.1514497124423773	0.6443569431815561	0.14420110116673235	-0.18465227144428376	0.8348014311347346	0.2437559809310298	1.277622725461328	0.5594044539500989	0.20858663266809407	1.5107544315957597	0.45129974640277304	0.2776198682705145	1.380126293377418	0.4367629323249428	0.3832135147533111	1.2493888408468186	0.5759404552953272	0.5874419847238918	1.1710496966478832	0.5119459596919791	0.45266166323775814	1.3225059777686277	0.5305834536127149	0.3568194449772105	1.372367194526075	0.5548472060444798	0.3576437208698693	1.4314777180147218	0.5519495406272539	0.4172110509837818	1.4145256277774922	0.511104291165043	0.07653836364772801	1.219947618278365	0.5682362600792819	0.014854603363130745	0.9575346277542708	0.6353916863277289	0.004214480429050021	0.7266047105367872	0.6280401077744684	0.04534471039365382	0.6154420304799487	0.584404842628814	0.022374834619957526	0.6000824176691617	0.5693969320470059	-0.003705567446895151	0.5920786822365153	0.6361842849178531	
89	1.9777777777777776	0.35527522935828976	0.7617291484362909	0.59760678002829	0.35471031713058343	0.2694339310948625	0.7175484519874951	0.35427764628129566	-0.14097948977040123	0.7653623812215802	0.3207896474695925	-0.13546657614159185	0.5429046597631358	0.3794759391394145	-0.14750531996344904	0.5909741557879516	0.339687849095069	-0.1926558321343754	0.8072400839753491	0.14067434295085166	0.7531849657871044	0.6230919172146823	0.11559908700174476	0.2688787808626341	0.7384747292257505	0.11319978454900129	-0.12384957021158872	0.7743019605963816	0.1128667697268697	-0.1362614480843678	0.5748621899261941	0.062001897051758556	-0.1514273054506605	0.6444047764772721	0.14418885355650993	-0.18465152663603193	0.8348844059888142	0.2430828072656555	1.278856921159768	0.5615336739956385	0.20765387089549375	1.5111785887721094	0.45370291595358914	0.27627694414333476	1.3802137296576154	0.43916711609383796	0.3815562690084358	1.250171802927594	0.5777550650171719	0.586671967252398	1.1665799819578642	0.5099408652283499	0.45326499930221886	1.3208134419645823	0.5307561795616336	0.35757270375940015	1.3750325457200638	0.5549619864678783	0.35799163992815547	1.4325012984409324	0.5516952872012747	0.4190495490562809	1.4196087555033012	0.5094156429363988	0.07507878935403607	1.2199557904754368	0.5674947733390158	0.01384428493346732	0.9567426350201721	0.6383978471379202	0.0042378285435694	0.7265258825518037	0.6280503425955112	0.04538227414154972	0.6161850867926844	0.584436978636383	0.022088550826101252	0.6004981403279528	0.5682322632179965	-0.0037501108253877665	0.5922142269721669	0.6363044134500905	
90	2.0	0.3550760338833675	0.7619207257887443	0.5978261891345446	0.35439337608586013	0.26939760196279816	0.7187526790751574	0.35420368204512775	-0.1409076909734589	0.7653675545479238	0.32067978096793653	-0.1355432696168915	0.5429869135040566	0.3795689449872939	-0.14771904285890672	0.5911365434022394	0.3398484497247598	-0.1927948046046789	0.807266187619424	0.14019946510585918	0.7532665784520778	0.6241413863424337	0.11563510242233857	0.2690119315072549	0.7384940497263048	0.11316164252671607	-0.1234754108820411	0.7742720626265251	0.11286457270041553	-0.13635725919726935	0.5749264480378244	0.06196900957246507	-0.15168558423245293	0.6445163172742012	0.14416954598253576	-0.18433237546255243	0.8349953753724322	0.24223642267891493	1.2806329336461395	0.5626360679178037	0.20681012776357782	1.511926904055322	0.4559537465968413	0.2748416491543169	1.380664866913673	0.4415414980253223	0.38031452722177717	1.2507928701268094	0.5787089830513558	0.5862700465651149	1.162509338281506	0.5057952080499049	0.45383115009061636	1.3190373987220367	0.5299531087132433	0.3582089867536997	1.3768908034242677	0.5561251249142679	0.3579578346468709	1.4328353078413705	0.5527780772481171	0.41960435998948886	1.4231439275194653	0.5059136288290919	0.07356839746783447	1.2199280779372337	0.5675109652836491	0.01297057656164809	0.9560167883171129	0.640598310750031	0.004378738823145994	0.7263541920403647	0.6280511517744032	0.04549243643089357	0.6169168440708164	0.5844478948058889	0.021811976944908138	0.6008480961198068	0.5674942185425206	-0.0037743397864308187	0.592013536044608	0.6364114406076652	
91	2.022222222222222	0.35519869258737263	0.7621121883028323	0.5984170564045789	0.35412637996543844	0.2695125317446203	0.7198554186921012	0.35412958087530805	-0.1406995554800046	0.7653844602763098	0.32064900064818525	-0.13563983696102136	0.5430878354069083	0.3795836445705722	-0.1475163566883538	0.5902557608637251	0.3400237833742313	-0.19282288869667974	0.8072733301803939	0.13955196419370602	0.7531745576022525	0.6250325666864487	0.1155782971054386	0.26919196939669077	0.7384796557837565	0.1131405804310324	-0.12324478620812596	0.774274767247271	0.11285591560160291	-0.13623902860502987	0.574913641701002	0.06195709355762767	-0.15225484399885642	0.6446228012220906	0.14414809651712066	-0.18376215254167308	0.8351042442437591	0.24138378801531818	1.2824967254262711	0.5632231683516882	0.20616340418094745	1.5129188549814836	0.4577702580032622	0.27354129066183386	1.3813092972106336	0.44357983020830305	0.37938713564238313	1.2510810168882835	0.578629651043628	0.5861421493495669	1.1590547993974396	0.5003185666193352	0.4548313491429181	1.3167988335132497	0.529670278630959	0.3582484361850967	1.3773508047557044	0.5582332395760992	0.358154808159926	1.4319228609229644	0.555249331407768	0.4195797007212566	1.424159192872591	0.5033353217347297	0.07237308208892052	1.2198439995631911	0.568883027262726	0.011956203038593304	0.9555112665957861	0.6422839860706975	0.004585544256384115	0.7262643437547349	0.6280924483078346	0.04572862133299497	0.6174898533368108	0.5845311434982284	0.021797081716884485	0.600913330202125	0.5678726352594418	-0.003765761067329696	0.5915738466926748	0.6365107639402062	
92	2.0444444444444443	0.3554793075221828	0.7621827169209054	0.5994078168768734	0.35390199529913663	0.2696892516424946	0.7208290156736762	0.3540579058411418	-0.14042785210928893	0.7654181378141091	0.3208568520693166	-0.1356959133511722	0.5431883436911823	0.3796061555489773	-0.1468374251367245	0.5885025844771197	0.34011251278253085	-0.19264663218182213	0.8072696198365381	0.1387393812420467	0.7529751330678617	0.62573009446943	0.11548004793576529	0.2693872517490973	0.7386017305264766	0.11314908527690735	-0.12306762221864166	0.7743962727718141	0.11286429336566994	-0.13610175184702106	0.5748654321890797	0.061979426979646216	-0.15307261222476407	0.6447530061774148	0.1441259384598659	-0.18306457038801005	0.8351816768730657	0.24067278231748354	1.28402963826909	0.5639499755584189	0.2057903452737135	1.5139254868302015	0.4586785279076123	0.2725948992683179	1.3819492750806162	0.44519955328420263	0.3787212112905724	1.2509332533424637	0.5779434226949665	0.5862423161624167	1.156259648906902	0.4951737755213436	0.456321588817568	1.3143794087310003	0.5311179753762988	0.35760455281899517	1.3764947172523443	0.5606613909912705	0.35987076930453854	1.429989066197951	0.5586183616840956	0.41983123079230034	1.4232253828952341	0.5042423925525895	0.07163229963763265	1.2197514432610779	0.571312502242083	0.01090795185716575	0.9553217428147515	0.6432506067635189	0.004596974754110541	0.7265543118787232	0.6282098394826694	0.04603722479900592	0.6177451015890346	0.5848374191009111	0.022169162146799787	0.600328818869864	0.5703622282589715	-0.0037213629515521146	0.5909793369377822	0.6366848832986683	
93	2.066666666666667	0.35557106040492475	0.7620566346719473	0.600745457175663	0.3537012019294012	0.26990495937589287	0.721626241512862	0.3539929992463845	-0.14023034762791353	0.7654362397735429	0.32121652693259994	-0.13567842323338264	0.543268770241326	0.37968412545407215	-0.1458470414554781	0.5863579204171886	0.34006976178636206	-0.19239114907947016	0.8072662881221488	0.13765832441805956	0.7526607523897184	0.6264163421451137	0.11535161668130962	0.2695972346902672	0.7388935043525618	0.11316726409080065	-0.12279541448920434	0.7746006585950724	0.1129116518475183	-0.13633427070790566	0.5749333009567534	0.06202956573459272	-0.1538157972185718	0.6449599173547724	0.14410664231585107	-0.18233274181201842	0.8352175045298467	0.23996776743862522	1.2849568633404957	0.5651391083063065	0.20564842164129743	1.5146989033253642	0.4583968562217521	0.2721543893900465	1.3826607052023636	0.446733898320481	0.37841051746513665	1.2507635025209485	0.577389118964891	0.586666081160647	1.1538255385965472	0.49248287308918237	0.45843100407754334	1.3126774449278558	0.5330054628330294	0.35741941149127254	1.3754447279515245	0.5634150836949388	0.3641187528090225	1.4281451674344985	0.5625635265663224	0.4214614520362113	1.4220279533597189	0.50880249124678	0.07111350746277786	1.219670567419874	0.5738049337902981	0.01007078920815471	0.9554016302509165	0.64316858130773	0.004162870605719045	0.7271501485876529	0.6283548854885181	0.04621464263769072	0.6177107026787002	0.5852833012462906	0.02292227516174618	0.5991328575867881	0.5739225553689954	-0.0035954720046615235	0.5901302072319707	0.6371564083494361	
